<svg xmlns="http://www.w3.org/2000/svg" xmlns:xlink="http://www.w3.org/1999/xlink" width="393" zoomAndPan="magnify" viewBox="0 0 294.75 294.749996" height="393" preserveAspectRatio="xMidYMid meet" version="1.0"><defs><clipPath id="2ef0a95a20"><path d="M 0 0 L 294.167969 0 L 294.167969 294.167969 L 0 294.167969 Z M 0 0 " clip-rule="nonzero"/></clipPath><clipPath id="234582e44c"><path d="M 147.085938 0 C 65.851562 0 0 65.851562 0 147.085938 C 0 228.316406 65.851562 294.167969 147.085938 294.167969 C 228.316406 294.167969 294.167969 228.316406 294.167969 147.085938 C 294.167969 65.851562 228.316406 0 147.085938 0 Z M 147.085938 0 " clip-rule="nonzero"/></clipPath><clipPath id="c6249700f3"><path d="M 53.386719 90.445312 L 240.953125 90.445312 L 240.953125 253.242188 L 53.386719 253.242188 Z M 53.386719 90.445312 " clip-rule="nonzero"/></clipPath><clipPath id="839fe3fd2c"><path d="M 73.5 76.636719 L 220.824219 76.636719 L 220.824219 203.882812 L 73.5 203.882812 Z M 73.5 76.636719 " clip-rule="nonzero"/></clipPath></defs><g clip-path="url(#2ef0a95a20)"><g clip-path="url(#234582e44c)"><path fill="#000000" d="M 0 0 L 294.167969 0 L 294.167969 294.167969 L 0 294.167969 Z M 0 0 " fill-opacity="1" fill-rule="nonzero"/></g></g><path fill="#ffffff" d="M 55.445312 92.492188 L 147.066406 251.183594 L 238.6875 92.492188 Z M 55.445312 92.492188 " fill-opacity="1" fill-rule="nonzero"/><g clip-path="url(#c6249700f3)"><path fill="#ffffff" d="M 238.6875 90.5 L 55.445312 90.5 C 54.734375 90.5 54.078125 90.878906 53.71875 91.496094 C 53.363281 92.113281 53.363281 92.875 53.71875 93.492188 L 145.339844 252.179688 C 145.695312 252.796875 146.355469 253.175781 147.066406 253.175781 C 147.777344 253.175781 148.4375 252.796875 148.792969 252.179688 L 240.414062 93.492188 C 240.769531 92.875 240.769531 92.113281 240.414062 91.496094 C 240.058594 90.878906 239.398438 90.5 238.6875 90.5 Z M 58.902344 94.488281 L 235.230469 94.488281 L 147.066406 247.195312 Z M 58.902344 94.488281 " fill-opacity="1" fill-rule="nonzero"/></g><path fill="#000000" d="M 75.117188 77.945312 L 147.070312 202.566406 L 219.019531 77.945312 Z M 75.117188 77.945312 " fill-opacity="1" fill-rule="nonzero"/><g clip-path="url(#839fe3fd2c)"><path fill="#000000" d="M 219.019531 76.378906 L 75.117188 76.378906 C 74.558594 76.378906 74.042969 76.675781 73.761719 77.160156 C 73.484375 77.644531 73.484375 78.242188 73.761719 78.726562 L 145.714844 203.347656 C 145.992188 203.832031 146.507812 204.132812 147.070312 204.132812 C 147.628906 204.132812 148.144531 203.832031 148.425781 203.347656 L 220.375 78.726562 C 220.65625 78.242188 220.65625 77.644531 220.375 77.160156 C 220.097656 76.675781 219.578125 76.378906 219.019531 76.378906 Z M 77.832031 79.511719 L 216.304688 79.511719 L 147.070312 199.433594 Z M 77.832031 79.511719 " fill-opacity="1" fill-rule="nonzero"/></g></svg>